<svg id="visual" viewBox="0 0 430 932" width="430" height="932" xmlns="http://www.w3.org/2000/svg" xmlns:xlink="http://www.w3.org/1999/xlink" version="1.1"><path d="M0 526L48 508L96 569L143 541L191 505L239 527L287 478L334 505L382 557L430 479L430 933L382 933L334 933L287 933L239 933L191 933L143 933L96 933L48 933L0 933Z" fill="#242424"></path><path d="M0 575L48 650L96 644L143 637L191 627L239 589L287 633L334 562L382 588L430 652L430 933L382 933L334 933L287 933L239 933L191 933L143 933L96 933L48 933L0 933Z" fill="#423255"></path><path d="M0 655L48 697L96 703L143 683L191 719L239 761L287 649L334 645L382 662L430 757L430 933L382 933L334 933L287 933L239 933L191 933L143 933L96 933L48 933L0 933Z" fill="#5f408a"></path><path d="M0 814L48 714L96 766L143 752L191 748L239 803L287 720L334 735L382 822L430 802L430 933L382 933L334 933L287 933L239 933L191 933L143 933L96 933L48 933L0 933Z" fill="#7d4dc3"></path><path d="M0 838L48 807L96 813L143 835L191 853L239 880L287 866L334 868L382 831L430 800L430 933L382 933L334 933L287 933L239 933L191 933L143 933L96 933L48 933L0 933Z" fill="#9b59ff"></path></svg>